<svg xmlns="http://www.w3.org/2000/svg" xmlns:xlink="http://www.w3.org/1999/xlink" contentStyleType="text/css" data-diagram-type="SEQUENCE" height="2228px" preserveAspectRatio="none" style="width:1548px;height:2228px;background:#FFFFFF;" version="1.1" viewBox="0 0 1548 2228" width="1548px" zoomAndPan="magnify"><defs/><g><g><title>Utilisateur</title><rect fill="#000000" fill-opacity="0.00000" height="2066.6328" width="8" x="40.0049" y="81.2969"/><line style="stroke:#181818;stroke-width:0.5;stroke-dasharray:5.0,5.0;" x1="44" x2="44" y1="81.2969" y2="2147.9297"/></g><g><title>Administrateur</title><rect fill="#000000" fill-opacity="0.00000" height="2066.6328" width="8" x="144.3115" y="81.2969"/><line style="stroke:#181818;stroke-width:0.5;stroke-dasharray:5.0,5.0;" x1="148.0098" x2="148.0098" y1="81.2969" y2="2147.9297"/></g><g><title>Interface Utilisateur</title><rect fill="#000000" fill-opacity="0.00000" height="2066.6328" width="8" x="286.1826" y="81.2969"/><line style="stroke:#181818;stroke-width:0.5;stroke-dasharray:5.0,5.0;" x1="289.6133" x2="289.6133" y1="81.2969" y2="2147.9297"/></g><g><title>Interface Admin</title><rect fill="#000000" fill-opacity="0.00000" height="2066.6328" width="8" x="435.7485" y="81.2969"/><line style="stroke:#181818;stroke-width:0.5;stroke-dasharray:5.0,5.0;" x1="438.752" x2="438.752" y1="81.2969" y2="2147.9297"/></g><g><title>Serveur Auth.API</title><rect fill="#000000" fill-opacity="0.00000" height="2066.6328" width="8" x="716.0859" y="81.2969"/><line style="stroke:#181818;stroke-width:0.5;stroke-dasharray:5.0,5.0;" x1="719.6304" x2="719.6304" y1="81.2969" y2="2147.9297"/></g><g><title>Base de donn.es</title><rect fill="#000000" fill-opacity="0.00000" height="2066.6328" width="8" x="1465.6865" y="81.2969"/><line style="stroke:#181818;stroke-width:0.5;stroke-dasharray:5.0,5.0;" x1="1469.5815" x2="1469.5815" y1="81.2969" y2="2147.9297"/></g><g class="participant participant-head" data-participant="Utilisateur"><text fill="#000000" font-family="sans-serif" font-size="14" lengthAdjust="spacing" textLength="72.0098" x="5" y="77.9951">Utilisateur</text><ellipse cx="44.0049" cy="13.5" fill="#E2E2F0" rx="8" ry="8" style="stroke:#181818;stroke-width:0.5;"/><path d="M44.0049,21.5 L44.0049,48.5 M31.0049,29.5 L57.0049,29.5 M44.0049,48.5 L31.0049,63.5 M44.0049,48.5 L57.0049,63.5" fill="none" style="stroke:#181818;stroke-width:0.5;"/></g><g class="participant participant-tail" data-participant="Utilisateur"><text fill="#000000" font-family="sans-serif" font-size="14" lengthAdjust="spacing" textLength="72.0098" x="5" y="2159.9248">Utilisateur</text><ellipse cx="44.0049" cy="2171.7266" fill="#E2E2F0" rx="8" ry="8" style="stroke:#181818;stroke-width:0.5;"/><path d="M44.0049,2179.7266 L44.0049,2206.7266 M31.0049,2187.7266 L57.0049,2187.7266 M44.0049,2206.7266 L31.0049,2221.7266 M44.0049,2206.7266 L57.0049,2221.7266" fill="none" style="stroke:#181818;stroke-width:0.5;"/></g><g class="participant participant-head" data-participant="Administrateur"><text fill="#000000" font-family="sans-serif" font-size="14" lengthAdjust="spacing" textLength="104.6035" x="93.0098" y="77.9951">Administrateur</text><ellipse cx="148.3115" cy="13.5" fill="#E2E2F0" rx="8" ry="8" style="stroke:#181818;stroke-width:0.5;"/><path d="M148.3115,21.5 L148.3115,48.5 M135.3115,29.5 L161.3115,29.5 M148.3115,48.5 L135.3115,63.5 M148.3115,48.5 L161.3115,63.5" fill="none" style="stroke:#181818;stroke-width:0.5;"/></g><g class="participant participant-tail" data-participant="Administrateur"><text fill="#000000" font-family="sans-serif" font-size="14" lengthAdjust="spacing" textLength="104.6035" x="93.0098" y="2159.9248">Administrateur</text><ellipse cx="148.3115" cy="2171.7266" fill="#E2E2F0" rx="8" ry="8" style="stroke:#181818;stroke-width:0.5;"/><path d="M148.3115,2179.7266 L148.3115,2206.7266 M135.3115,2187.7266 L161.3115,2187.7266 M148.3115,2206.7266 L135.3115,2221.7266 M148.3115,2206.7266 L161.3115,2221.7266" fill="none" style="stroke:#181818;stroke-width:0.5;"/></g><g class="participant participant-head" data-participant="UI_User"><rect fill="#E2E2F0" height="30.2969" rx="2.5" ry="2.5" style="stroke:#181818;stroke-width:0.5;" width="153.1387" x="213.6133" y="50"/><text fill="#000000" font-family="sans-serif" font-size="14" lengthAdjust="spacing" textLength="139.1387" x="220.6133" y="69.9951">Interface Utilisateur</text></g><g class="participant participant-tail" data-participant="UI_User"><rect fill="#E2E2F0" height="30.2969" rx="2.5" ry="2.5" style="stroke:#181818;stroke-width:0.5;" width="153.1387" x="213.6133" y="2146.9297"/><text fill="#000000" font-family="sans-serif" font-size="14" lengthAdjust="spacing" textLength="139.1387" x="220.6133" y="2166.9248">Interface Utilisateur</text></g><g class="participant participant-head" data-participant="UI_Admin"><rect fill="#E2E2F0" height="30.2969" rx="2.5" ry="2.5" style="stroke:#181818;stroke-width:0.5;" width="125.9932" x="376.752" y="50"/><text fill="#000000" font-family="sans-serif" font-size="14" lengthAdjust="spacing" textLength="111.9932" x="383.752" y="69.9951">Interface Admin</text></g><g class="participant participant-tail" data-participant="UI_Admin"><rect fill="#E2E2F0" height="30.2969" rx="2.5" ry="2.5" style="stroke:#181818;stroke-width:0.5;" width="125.9932" x="376.752" y="2146.9297"/><text fill="#000000" font-family="sans-serif" font-size="14" lengthAdjust="spacing" textLength="111.9932" x="383.752" y="2166.9248">Interface Admin</text></g><g class="participant participant-head" data-participant="Server"><rect fill="#E2E2F0" height="30.2969" rx="2.5" ry="2.5" style="stroke:#181818;stroke-width:0.5;" width="132.9111" x="653.6304" y="50"/><text fill="#000000" font-family="sans-serif" font-size="14" lengthAdjust="spacing" textLength="118.9111" x="660.6304" y="69.9951">Serveur Auth/API</text></g><g class="participant participant-tail" data-participant="Server"><rect fill="#E2E2F0" height="30.2969" rx="2.5" ry="2.5" style="stroke:#181818;stroke-width:0.5;" width="132.9111" x="653.6304" y="2146.9297"/><text fill="#000000" font-family="sans-serif" font-size="14" lengthAdjust="spacing" textLength="118.9111" x="660.6304" y="2166.9248">Serveur Auth/API</text></g><g class="participant participant-head" data-participant="DB"><rect fill="#E2E2F0" height="30.2969" rx="2.5" ry="2.5" style="stroke:#181818;stroke-width:0.5;" width="134.21" x="1402.5815" y="50"/><text fill="#000000" font-family="sans-serif" font-size="14" lengthAdjust="spacing" textLength="120.21" x="1409.5815" y="69.9951">Base de donn&#233;es</text></g><g class="participant participant-tail" data-participant="DB"><rect fill="#E2E2F0" height="30.2969" rx="2.5" ry="2.5" style="stroke:#181818;stroke-width:0.5;" width="134.21" x="1402.5815" y="2146.9297"/><text fill="#000000" font-family="sans-serif" font-size="14" lengthAdjust="spacing" textLength="120.21" x="1409.5815" y="2166.9248">Base de donn&#233;es</text></g><rect fill="#EEEEEE" height="3" style="stroke:#EEEEEE;stroke-width:1;" width="1541.7915" x="0" y="111.8633"/><line style="stroke:#000000;stroke-width:1;" x1="0" x2="1541.7915" y1="111.8633" y2="111.8633"/><line style="stroke:#000000;stroke-width:1;" x1="0" x2="1541.7915" y1="114.8633" y2="114.8633"/><rect fill="#EEEEEE" height="23.1328" style="stroke:#000000;stroke-width:2;" width="177.2236" x="682.2839" y="101.2969"/><text fill="#000000" font-family="sans-serif" font-size="13" font-weight="bold" lengthAdjust="spacing" textLength="158.6978" x="688.2839" y="117.3638">Connexion Utilisateur</text><g class="message" data-participant-1="Utilisateur" data-participant-2="UI_User"><polygon fill="#181818" points="278.1826,151.5625,288.1826,155.5625,278.1826,159.5625,282.1826,155.5625" style="stroke:#181818;stroke-width:1;"/><line style="stroke:#181818;stroke-width:1;" x1="44.0049" x2="284.1826" y1="155.5625" y2="155.5625"/><text fill="#000000" font-family="sans-serif" font-size="13" lengthAdjust="spacing" textLength="187.3701" x="51.0049" y="150.4966">Entrer email + mot de passe</text></g><g class="message" data-participant-1="UI_User" data-participant-2="Server"><polygon fill="#181818" points="708.0859,180.6953,718.0859,184.6953,708.0859,188.6953,712.0859,184.6953" style="stroke:#181818;stroke-width:1;"/><line style="stroke:#181818;stroke-width:1;" x1="290.1826" x2="714.0859" y1="184.6953" y2="184.6953"/><text fill="#000000" font-family="sans-serif" font-size="13" lengthAdjust="spacing" textLength="74.4453" x="297.1826" y="179.6294">POST /login</text></g><g class="message" data-participant-1="Server" data-participant-2="DB"><polygon fill="#181818" points="1457.6865,209.8281,1467.6865,213.8281,1457.6865,217.8281,1461.6865,213.8281" style="stroke:#181818;stroke-width:1;"/><line style="stroke:#181818;stroke-width:1;" x1="720.0859" x2="1463.6865" y1="213.8281" y2="213.8281"/><text fill="#000000" font-family="sans-serif" font-size="13" lengthAdjust="spacing" textLength="259.1875" x="727.0859" y="208.7622">SELECT * FROM users WHERE email = ?</text></g><g class="message" data-participant-1="DB" data-participant-2="Server"><polygon fill="#181818" points="731.0859,238.9609,721.0859,242.9609,731.0859,246.9609,727.0859,242.9609" style="stroke:#181818;stroke-width:1;"/><line style="stroke:#181818;stroke-width:1;stroke-dasharray:2.0,2.0;" x1="725.0859" x2="1468.6865" y1="242.9609" y2="242.9609"/><text fill="#000000" font-family="sans-serif" font-size="13" lengthAdjust="spacing" textLength="126.9341" x="737.0859" y="237.895">Donn&#233;es utilisateur</text></g><g class="message" data-participant-1="Server" data-participant-2="Server"><line style="stroke:#181818;stroke-width:1;" x1="720.0859" x2="762.0859" y1="272.0938" y2="272.0938"/><line style="stroke:#181818;stroke-width:1;" x1="762.0859" x2="762.0859" y1="272.0938" y2="285.0938"/><line style="stroke:#181818;stroke-width:1;" x1="721.0859" x2="762.0859" y1="285.0938" y2="285.0938"/><polygon fill="#181818" points="731.0859,281.0938,721.0859,285.0938,731.0859,289.0938,727.0859,285.0938" style="stroke:#181818;stroke-width:1;"/><text fill="#000000" font-family="sans-serif" font-size="13" lengthAdjust="spacing" textLength="139.5024" x="727.0859" y="267.0278">V&#233;rifier mot de passe</text></g><g class="message" data-participant-1="Server" data-participant-2="UI_User"><polygon fill="#181818" points="301.1826,310.2266,291.1826,314.2266,301.1826,318.2266,297.1826,314.2266" style="stroke:#181818;stroke-width:1;"/><line style="stroke:#181818;stroke-width:1;" x1="295.1826" x2="719.0859" y1="314.2266" y2="314.2266"/><text fill="#000000" font-family="sans-serif" font-size="13" lengthAdjust="spacing" textLength="181.9175" x="307.1826" y="309.1606">Token/session + redirection</text></g><rect fill="#EEEEEE" height="3" style="stroke:#EEEEEE;stroke-width:1;" width="1541.7915" x="0" y="342.793"/><line style="stroke:#000000;stroke-width:1;" x1="0" x2="1541.7915" y1="342.793" y2="342.793"/><line style="stroke:#000000;stroke-width:1;" x1="0" x2="1541.7915" y1="345.793" y2="345.793"/><rect fill="#EEEEEE" height="23.1328" style="stroke:#000000;stroke-width:2;" width="203.1982" x="669.2966" y="332.2266"/><text fill="#000000" font-family="sans-serif" font-size="13" font-weight="bold" lengthAdjust="spacing" textLength="184.6724" x="675.2966" y="348.2935">Ajout identifiant SONEDE</text><g class="message" data-participant-1="Utilisateur" data-participant-2="UI_User"><polygon fill="#181818" points="278.1826,382.4922,288.1826,386.4922,278.1826,390.4922,282.1826,386.4922" style="stroke:#181818;stroke-width:1;"/><line style="stroke:#181818;stroke-width:1;" x1="44.0049" x2="284.1826" y1="386.4922" y2="386.4922"/><text fill="#000000" font-family="sans-serif" font-size="13" lengthAdjust="spacing" textLength="148.9097" x="51.0049" y="381.4263">Saisir num&#233;ro SONEDE</text></g><g class="message" data-participant-1="UI_User" data-participant-2="Server"><polygon fill="#181818" points="708.0859,411.625,718.0859,415.625,708.0859,419.625,712.0859,415.625" style="stroke:#181818;stroke-width:1;"/><line style="stroke:#181818;stroke-width:1;" x1="290.1826" x2="714.0859" y1="415.625" y2="415.625"/><text fill="#000000" font-family="sans-serif" font-size="13" lengthAdjust="spacing" textLength="143.146" x="297.1826" y="410.5591">POST /compte-service</text></g><g class="message" data-participant-1="Server" data-participant-2="DB"><polygon fill="#181818" points="1457.6865,440.7578,1467.6865,444.7578,1457.6865,448.7578,1461.6865,444.7578" style="stroke:#181818;stroke-width:1;"/><line style="stroke:#181818;stroke-width:1;" x1="720.0859" x2="1463.6865" y1="444.7578" y2="444.7578"/><text fill="#000000" font-family="sans-serif" font-size="13" lengthAdjust="spacing" textLength="215.8457" x="727.0859" y="439.6919">INSERT INTO compte_service (...)</text></g><g class="message" data-participant-1="DB" data-participant-2="Server"><polygon fill="#181818" points="731.0859,469.8906,721.0859,473.8906,731.0859,477.8906,727.0859,473.8906" style="stroke:#181818;stroke-width:1;"/><line style="stroke:#181818;stroke-width:1;stroke-dasharray:2.0,2.0;" x1="725.0859" x2="1468.6865" y1="473.8906" y2="473.8906"/><text fill="#000000" font-family="sans-serif" font-size="13" lengthAdjust="spacing" textLength="18.7573" x="737.0859" y="468.8247">OK</text></g><g class="message" data-participant-1="Server" data-participant-2="UI_User"><polygon fill="#181818" points="301.1826,499.0234,291.1826,503.0234,301.1826,507.0234,297.1826,503.0234" style="stroke:#181818;stroke-width:1;"/><line style="stroke:#181818;stroke-width:1;" x1="295.1826" x2="719.0859" y1="503.0234" y2="503.0234"/><text fill="#000000" font-family="sans-serif" font-size="13" lengthAdjust="spacing" textLength="121.3354" x="307.1826" y="497.9575">Confirmation ajout</text></g><rect fill="#EEEEEE" height="3" style="stroke:#EEEEEE;stroke-width:1;" width="1541.7915" x="0" y="531.5898"/><line style="stroke:#000000;stroke-width:1;" x1="0" x2="1541.7915" y1="531.5898" y2="531.5898"/><line style="stroke:#000000;stroke-width:1;" x1="0" x2="1541.7915" y1="534.5898" y2="534.5898"/><rect fill="#EEEEEE" height="23.1328" style="stroke:#000000;stroke-width:2;" width="281.4775" x="630.157" y="521.0234"/><text fill="#000000" font-family="sans-serif" font-size="13" font-weight="bold" lengthAdjust="spacing" textLength="262.9517" x="636.157" y="537.0903">Consultation des factures impay&#233;es</text><g class="message" data-participant-1="Utilisateur" data-participant-2="UI_User"><polygon fill="#181818" points="278.1826,571.2891,288.1826,575.2891,278.1826,579.2891,282.1826,575.2891" style="stroke:#181818;stroke-width:1;"/><line style="stroke:#181818;stroke-width:1;" x1="44.0049" x2="284.1826" y1="575.2891" y2="575.2891"/><text fill="#000000" font-family="sans-serif" font-size="13" lengthAdjust="spacing" textLength="164.2329" x="51.0049" y="570.2231">Acc&#233;der &#224; "Mes factures"</text></g><g class="message" data-participant-1="UI_User" data-participant-2="Server"><polygon fill="#181818" points="708.0859,600.4219,718.0859,604.4219,708.0859,608.4219,712.0859,604.4219" style="stroke:#181818;stroke-width:1;"/><line style="stroke:#181818;stroke-width:1;" x1="290.1826" x2="714.0859" y1="604.4219" y2="604.4219"/><text fill="#000000" font-family="sans-serif" font-size="13" lengthAdjust="spacing" textLength="170.2061" x="297.1826" y="599.356">GET /factures?user_id=XX</text></g><g class="message" data-participant-1="Server" data-participant-2="DB"><polygon fill="#181818" points="1457.6865,629.5547,1467.6865,633.5547,1457.6865,637.5547,1461.6865,633.5547" style="stroke:#181818;stroke-width:1;"/><line style="stroke:#181818;stroke-width:1;" x1="720.0859" x2="1463.6865" y1="633.5547" y2="633.5547"/><text fill="#000000" font-family="sans-serif" font-size="13" lengthAdjust="spacing" textLength="489.6265" x="727.0859" y="628.4888">SELECT * FROM factures WHERE utilisateur_id=XX AND statut='non pay&#233;e'</text></g><g class="message" data-participant-1="DB" data-participant-2="Server"><polygon fill="#181818" points="731.0859,658.6875,721.0859,662.6875,731.0859,666.6875,727.0859,662.6875" style="stroke:#181818;stroke-width:1;"/><line style="stroke:#181818;stroke-width:1;stroke-dasharray:2.0,2.0;" x1="725.0859" x2="1468.6865" y1="662.6875" y2="662.6875"/><text fill="#000000" font-family="sans-serif" font-size="13" lengthAdjust="spacing" textLength="87.9976" x="737.0859" y="657.6216">Liste factures</text></g><g class="message" data-participant-1="Server" data-participant-2="UI_User"><polygon fill="#181818" points="301.1826,687.8203,291.1826,691.8203,301.1826,695.8203,297.1826,691.8203" style="stroke:#181818;stroke-width:1;"/><line style="stroke:#181818;stroke-width:1;" x1="295.1826" x2="719.0859" y1="691.8203" y2="691.8203"/><text fill="#000000" font-family="sans-serif" font-size="13" lengthAdjust="spacing" textLength="212.7798" x="307.1826" y="686.7544">Affichage des factures impay&#233;es</text></g><rect fill="#EEEEEE" height="3" style="stroke:#EEEEEE;stroke-width:1;" width="1541.7915" x="0" y="720.3867"/><line style="stroke:#000000;stroke-width:1;" x1="0" x2="1541.7915" y1="720.3867" y2="720.3867"/><line style="stroke:#000000;stroke-width:1;" x1="0" x2="1541.7915" y1="723.3867" y2="723.3867"/><rect fill="#EEEEEE" height="23.1328" style="stroke:#000000;stroke-width:2;" width="190.4268" x="675.6824" y="709.8203"/><text fill="#000000" font-family="sans-serif" font-size="13" font-weight="bold" lengthAdjust="spacing" textLength="171.9009" x="681.6824" y="725.8872">Paiement d'une facture</text><g class="message" data-participant-1="Utilisateur" data-participant-2="UI_User"><polygon fill="#181818" points="278.1826,760.0859,288.1826,764.0859,278.1826,768.0859,282.1826,764.0859" style="stroke:#181818;stroke-width:1;"/><line style="stroke:#181818;stroke-width:1;" x1="44.0049" x2="284.1826" y1="764.0859" y2="764.0859"/><text fill="#000000" font-family="sans-serif" font-size="13" lengthAdjust="spacing" textLength="123.5571" x="51.0049" y="759.02">Cliquer sur "Payer"</text></g><g class="message" data-participant-1="UI_User" data-participant-2="Server"><polygon fill="#181818" points="708.0859,789.2188,718.0859,793.2188,708.0859,797.2188,712.0859,793.2188" style="stroke:#181818;stroke-width:1;"/><line style="stroke:#181818;stroke-width:1;" x1="290.1826" x2="714.0859" y1="793.2188" y2="793.2188"/><text fill="#000000" font-family="sans-serif" font-size="13" lengthAdjust="spacing" textLength="250.0786" x="297.1826" y="788.1528">POST /paiement (facture_id, m&#233;thode)</text></g><g class="message" data-participant-1="Server" data-participant-2="DB"><polygon fill="#181818" points="1457.6865,818.3516,1467.6865,822.3516,1457.6865,826.3516,1461.6865,822.3516" style="stroke:#181818;stroke-width:1;"/><line style="stroke:#181818;stroke-width:1;" x1="720.0859" x2="1463.6865" y1="822.3516" y2="822.3516"/><text fill="#000000" font-family="sans-serif" font-size="13" lengthAdjust="spacing" textLength="155.5938" x="727.0859" y="817.2856">INSERT INTO paiements</text></g><g class="message" data-participant-1="Server" data-participant-2="DB"><polygon fill="#181818" points="1457.6865,847.4844,1467.6865,851.4844,1457.6865,855.4844,1461.6865,851.4844" style="stroke:#181818;stroke-width:1;"/><line style="stroke:#181818;stroke-width:1;" x1="720.0859" x2="1463.6865" y1="851.4844" y2="851.4844"/><text fill="#000000" font-family="sans-serif" font-size="13" lengthAdjust="spacing" textLength="238.5767" x="727.0859" y="846.4185">UPDATE factures SET statut='pay&#233;e'</text></g><g class="message" data-participant-1="DB" data-participant-2="Server"><polygon fill="#181818" points="731.0859,876.6172,721.0859,880.6172,731.0859,884.6172,727.0859,880.6172" style="stroke:#181818;stroke-width:1;"/><line style="stroke:#181818;stroke-width:1;stroke-dasharray:2.0,2.0;" x1="725.0859" x2="1468.6865" y1="880.6172" y2="880.6172"/><text fill="#000000" font-family="sans-serif" font-size="13" lengthAdjust="spacing" textLength="18.7573" x="737.0859" y="875.5513">OK</text></g><g class="message" data-participant-1="Server" data-participant-2="UI_User"><polygon fill="#181818" points="301.1826,905.75,291.1826,909.75,301.1826,913.75,297.1826,909.75" style="stroke:#181818;stroke-width:1;"/><line style="stroke:#181818;stroke-width:1;" x1="295.1826" x2="719.0859" y1="909.75" y2="909.75"/><text fill="#000000" font-family="sans-serif" font-size="13" lengthAdjust="spacing" textLength="118.7583" x="307.1826" y="904.6841">Re&#231;u de paiement</text></g><rect fill="#EEEEEE" height="3" style="stroke:#EEEEEE;stroke-width:1;" width="1541.7915" x="0" y="938.3164"/><line style="stroke:#000000;stroke-width:1;" x1="0" x2="1541.7915" y1="938.3164" y2="938.3164"/><line style="stroke:#000000;stroke-width:1;" x1="0" x2="1541.7915" y1="941.3164" y2="941.3164"/><rect fill="#EEEEEE" height="23.1328" style="stroke:#000000;stroke-width:2;" width="199.085" x="671.3533" y="927.75"/><text fill="#000000" font-family="sans-serif" font-size="13" font-weight="bold" lengthAdjust="spacing" textLength="180.5591" x="677.3533" y="943.8169">Historique de paiements</text><g class="message" data-participant-1="Utilisateur" data-participant-2="UI_User"><polygon fill="#181818" points="278.1826,978.0156,288.1826,982.0156,278.1826,986.0156,282.1826,982.0156" style="stroke:#181818;stroke-width:1;"/><line style="stroke:#181818;stroke-width:1;" x1="44.0049" x2="284.1826" y1="982.0156" y2="982.0156"/><text fill="#000000" font-family="sans-serif" font-size="13" lengthAdjust="spacing" textLength="147.6274" x="51.0049" y="976.9497">Acc&#233;der &#224; "Historique"</text></g><g class="message" data-participant-1="UI_User" data-participant-2="Server"><polygon fill="#181818" points="708.0859,1007.1484,718.0859,1011.1484,708.0859,1015.1484,712.0859,1011.1484" style="stroke:#181818;stroke-width:1;"/><line style="stroke:#181818;stroke-width:1;" x1="290.1826" x2="714.0859" y1="1011.1484" y2="1011.1484"/><text fill="#000000" font-family="sans-serif" font-size="13" lengthAdjust="spacing" textLength="185.6626" x="297.1826" y="1006.0825">GET /paiements?user_id=XX</text></g><g class="message" data-participant-1="Server" data-participant-2="DB"><polygon fill="#181818" points="1457.6865,1036.2813,1467.6865,1040.2813,1457.6865,1044.2813,1461.6865,1040.2813" style="stroke:#181818;stroke-width:1;"/><line style="stroke:#181818;stroke-width:1;" x1="720.0859" x2="1463.6865" y1="1040.2813" y2="1040.2813"/><text fill="#000000" font-family="sans-serif" font-size="13" lengthAdjust="spacing" textLength="343.4082" x="727.0859" y="1035.2153">SELECT * FROM paiements WHERE utilisateur_id=XX</text></g><g class="message" data-participant-1="DB" data-participant-2="Server"><polygon fill="#181818" points="731.0859,1065.4141,721.0859,1069.4141,731.0859,1073.4141,727.0859,1069.4141" style="stroke:#181818;stroke-width:1;"/><line style="stroke:#181818;stroke-width:1;stroke-dasharray:2.0,2.0;" x1="725.0859" x2="1468.6865" y1="1069.4141" y2="1069.4141"/><text fill="#000000" font-family="sans-serif" font-size="13" lengthAdjust="spacing" textLength="129.9429" x="737.0859" y="1064.3481">Donn&#233;es paiements</text></g><g class="message" data-participant-1="Server" data-participant-2="UI_User"><polygon fill="#181818" points="301.1826,1094.5469,291.1826,1098.5469,301.1826,1102.5469,297.1826,1098.5469" style="stroke:#181818;stroke-width:1;"/><line style="stroke:#181818;stroke-width:1;" x1="295.1826" x2="719.0859" y1="1098.5469" y2="1098.5469"/><text fill="#000000" font-family="sans-serif" font-size="13" lengthAdjust="spacing" textLength="161.1479" x="307.1826" y="1093.481">Affichage des paiements</text></g><rect fill="#EEEEEE" height="3" style="stroke:#EEEEEE;stroke-width:1;" width="1541.7915" x="0" y="1127.1133"/><line style="stroke:#000000;stroke-width:1;" x1="0" x2="1541.7915" y1="1127.1133" y2="1127.1133"/><line style="stroke:#000000;stroke-width:1;" x1="0" x2="1541.7915" y1="1130.1133" y2="1130.1133"/><rect fill="#EEEEEE" height="23.1328" style="stroke:#000000;stroke-width:2;" width="210.79" x="665.5007" y="1116.5469"/><text fill="#000000" font-family="sans-serif" font-size="13" font-weight="bold" lengthAdjust="spacing" textLength="192.2642" x="671.5007" y="1132.6138">Connexion Administrateur</text><g class="message" data-participant-1="Administrateur" data-participant-2="UI_Admin"><polygon fill="#181818" points="427.7485,1166.8125,437.7485,1170.8125,427.7485,1174.8125,431.7485,1170.8125" style="stroke:#181818;stroke-width:1;"/><line style="stroke:#181818;stroke-width:1;" x1="148.3115" x2="433.7485" y1="1170.8125" y2="1170.8125"/><text fill="#000000" font-family="sans-serif" font-size="13" lengthAdjust="spacing" textLength="182.6919" x="155.3115" y="1165.7466">Saisir email + mot de passe</text></g><g class="message" data-participant-1="UI_Admin" data-participant-2="Server"><polygon fill="#181818" points="708.0859,1195.9453,718.0859,1199.9453,708.0859,1203.9453,712.0859,1199.9453" style="stroke:#181818;stroke-width:1;"/><line style="stroke:#181818;stroke-width:1;" x1="439.7485" x2="714.0859" y1="1199.9453" y2="1199.9453"/><text fill="#000000" font-family="sans-serif" font-size="13" lengthAdjust="spacing" textLength="119.5581" x="446.7485" y="1194.8794">POST /admin/login</text></g><g class="message" data-participant-1="Server" data-participant-2="DB"><polygon fill="#181818" points="1457.6865,1225.0781,1467.6865,1229.0781,1457.6865,1233.0781,1461.6865,1229.0781" style="stroke:#181818;stroke-width:1;"/><line style="stroke:#181818;stroke-width:1;" x1="720.0859" x2="1463.6865" y1="1229.0781" y2="1229.0781"/><text fill="#000000" font-family="sans-serif" font-size="13" lengthAdjust="spacing" textLength="388.0259" x="727.0859" y="1224.0122">SELECT * FROM users WHERE email = ? AND role = 'admin'</text></g><g class="message" data-participant-1="DB" data-participant-2="Server"><polygon fill="#181818" points="731.0859,1254.2109,721.0859,1258.2109,731.0859,1262.2109,727.0859,1258.2109" style="stroke:#181818;stroke-width:1;"/><line style="stroke:#181818;stroke-width:1;stroke-dasharray:2.0,2.0;" x1="725.0859" x2="1468.6865" y1="1258.2109" y2="1258.2109"/><text fill="#000000" font-family="sans-serif" font-size="13" lengthAdjust="spacing" textLength="102.0767" x="737.0859" y="1253.145">Donn&#233;es admin</text></g><g class="message" data-participant-1="Server" data-participant-2="UI_Admin"><polygon fill="#181818" points="450.7485,1283.3438,440.7485,1287.3438,450.7485,1291.3438,446.7485,1287.3438" style="stroke:#181818;stroke-width:1;"/><line style="stroke:#181818;stroke-width:1;" x1="444.7485" x2="719.0859" y1="1287.3438" y2="1287.3438"/><text fill="#000000" font-family="sans-serif" font-size="13" lengthAdjust="spacing" textLength="228.8521" x="456.7485" y="1282.2778">Redirection vers /admin/dashboard</text></g><rect fill="#EEEEEE" height="3" style="stroke:#EEEEEE;stroke-width:1;" width="1541.7915" x="0" y="1315.9102"/><line style="stroke:#000000;stroke-width:1;" x1="0" x2="1541.7915" y1="1315.9102" y2="1315.9102"/><line style="stroke:#000000;stroke-width:1;" x1="0" x2="1541.7915" y1="1318.9102" y2="1318.9102"/><rect fill="#EEEEEE" height="23.1328" style="stroke:#000000;stroke-width:2;" width="147.9609" x="696.9153" y="1305.3438"/><text fill="#000000" font-family="sans-serif" font-size="13" font-weight="bold" lengthAdjust="spacing" textLength="129.4351" x="702.9153" y="1321.4106">G&#233;rer utilisateurs</text><g class="message" data-participant-1="Administrateur" data-participant-2="UI_Admin"><polygon fill="#181818" points="427.7485,1355.6094,437.7485,1359.6094,427.7485,1363.6094,431.7485,1359.6094" style="stroke:#181818;stroke-width:1;"/><line style="stroke:#181818;stroke-width:1;" x1="148.3115" x2="433.7485" y1="1359.6094" y2="1359.6094"/><text fill="#000000" font-family="sans-serif" font-size="13" lengthAdjust="spacing" textLength="135.8652" x="155.3115" y="1354.5435">Cliquer "Utilisateurs"</text></g><g class="message" data-participant-1="UI_Admin" data-participant-2="Server"><polygon fill="#181818" points="708.0859,1384.7422,718.0859,1388.7422,708.0859,1392.7422,712.0859,1388.7422" style="stroke:#181818;stroke-width:1;"/><line style="stroke:#181818;stroke-width:1;" x1="439.7485" x2="714.0859" y1="1388.7422" y2="1388.7422"/><text fill="#000000" font-family="sans-serif" font-size="13" lengthAdjust="spacing" textLength="152.2168" x="446.7485" y="1383.6763">GET /admin/utilisateurs</text></g><g class="message" data-participant-1="Server" data-participant-2="DB"><polygon fill="#181818" points="1457.6865,1413.875,1467.6865,1417.875,1457.6865,1421.875,1461.6865,1417.875" style="stroke:#181818;stroke-width:1;"/><line style="stroke:#181818;stroke-width:1;" x1="720.0859" x2="1463.6865" y1="1417.875" y2="1417.875"/><text fill="#000000" font-family="sans-serif" font-size="13" lengthAdjust="spacing" textLength="140.9243" x="727.0859" y="1412.8091">SELECT * FROM users</text></g><g class="message" data-participant-1="DB" data-participant-2="Server"><polygon fill="#181818" points="731.0859,1443.0078,721.0859,1447.0078,731.0859,1451.0078,727.0859,1447.0078" style="stroke:#181818;stroke-width:1;"/><line style="stroke:#181818;stroke-width:1;stroke-dasharray:2.0,2.0;" x1="725.0859" x2="1468.6865" y1="1447.0078" y2="1447.0078"/><text fill="#000000" font-family="sans-serif" font-size="13" lengthAdjust="spacing" textLength="107.2183" x="737.0859" y="1441.9419">Liste utilisateurs</text></g><g class="message" data-participant-1="Server" data-participant-2="UI_Admin"><polygon fill="#181818" points="450.7485,1472.1406,440.7485,1476.1406,450.7485,1480.1406,446.7485,1476.1406" style="stroke:#181818;stroke-width:1;"/><line style="stroke:#181818;stroke-width:1;" x1="444.7485" x2="719.0859" y1="1476.1406" y2="1476.1406"/><text fill="#000000" font-family="sans-serif" font-size="13" lengthAdjust="spacing" textLength="92.4854" x="456.7485" y="1471.0747">Affichage liste</text></g><rect fill="#EEEEEE" height="3" style="stroke:#EEEEEE;stroke-width:1;" width="1541.7915" x="0" y="1504.707"/><line style="stroke:#000000;stroke-width:1;" x1="0" x2="1541.7915" y1="1504.707" y2="1504.707"/><line style="stroke:#000000;stroke-width:1;" x1="0" x2="1541.7915" y1="1507.707" y2="1507.707"/><rect fill="#EEEEEE" height="23.1328" style="stroke:#000000;stroke-width:2;" width="179.02" x="681.3857" y="1494.1406"/><text fill="#000000" font-family="sans-serif" font-size="13" font-weight="bold" lengthAdjust="spacing" textLength="160.4941" x="687.3857" y="1510.2075">Superviser paiements</text><g class="message" data-participant-1="Administrateur" data-participant-2="UI_Admin"><polygon fill="#181818" points="427.7485,1544.4063,437.7485,1548.4063,427.7485,1552.4063,431.7485,1548.4063" style="stroke:#181818;stroke-width:1;"/><line style="stroke:#181818;stroke-width:1;" x1="148.3115" x2="433.7485" y1="1548.4063" y2="1548.4063"/><text fill="#000000" font-family="sans-serif" font-size="13" lengthAdjust="spacing" textLength="130.4126" x="155.3115" y="1543.3403">Cliquer "Paiements"</text></g><g class="message" data-participant-1="UI_Admin" data-participant-2="Server"><polygon fill="#181818" points="708.0859,1573.5391,718.0859,1577.5391,708.0859,1581.5391,712.0859,1577.5391" style="stroke:#181818;stroke-width:1;"/><line style="stroke:#181818;stroke-width:1;" x1="439.7485" x2="714.0859" y1="1577.5391" y2="1577.5391"/><text fill="#000000" font-family="sans-serif" font-size="13" lengthAdjust="spacing" textLength="148.4526" x="446.7485" y="1572.4731">GET /admin/paiements</text></g><g class="message" data-participant-1="Server" data-participant-2="DB"><polygon fill="#181818" points="1457.6865,1602.6719,1467.6865,1606.6719,1457.6865,1610.6719,1461.6865,1606.6719" style="stroke:#181818;stroke-width:1;"/><line style="stroke:#181818;stroke-width:1;" x1="720.0859" x2="1463.6865" y1="1606.6719" y2="1606.6719"/><text fill="#000000" font-family="sans-serif" font-size="13" lengthAdjust="spacing" textLength="334.4453" x="727.0859" y="1601.606">SELECT * FROM paiements JOIN users JOIN factures</text></g><g class="message" data-participant-1="DB" data-participant-2="Server"><polygon fill="#181818" points="731.0859,1631.8047,721.0859,1635.8047,731.0859,1639.8047,727.0859,1635.8047" style="stroke:#181818;stroke-width:1;"/><line style="stroke:#181818;stroke-width:1;stroke-dasharray:2.0,2.0;" x1="725.0859" x2="1468.6865" y1="1635.8047" y2="1635.8047"/><text fill="#000000" font-family="sans-serif" font-size="13" lengthAdjust="spacing" textLength="129.9429" x="737.0859" y="1630.7388">Donn&#233;es paiements</text></g><g class="message" data-participant-1="Server" data-participant-2="UI_Admin"><polygon fill="#181818" points="450.7485,1660.9375,440.7485,1664.9375,450.7485,1668.9375,446.7485,1664.9375" style="stroke:#181818;stroke-width:1;"/><line style="stroke:#181818;stroke-width:1;" x1="444.7485" x2="719.0859" y1="1664.9375" y2="1664.9375"/><text fill="#000000" font-family="sans-serif" font-size="13" lengthAdjust="spacing" textLength="114.5244" x="456.7485" y="1659.8716">Affichage tableau</text></g><rect fill="#EEEEEE" height="3" style="stroke:#EEEEEE;stroke-width:1;" width="1541.7915" x="0" y="1693.5039"/><line style="stroke:#000000;stroke-width:1;" x1="0" x2="1541.7915" y1="1693.5039" y2="1693.5039"/><line style="stroke:#000000;stroke-width:1;" x1="0" x2="1541.7915" y1="1696.5039" y2="1696.5039"/><rect fill="#EEEEEE" height="23.1328" style="stroke:#000000;stroke-width:2;" width="155.8384" x="692.9766" y="1682.9375"/><text fill="#000000" font-family="sans-serif" font-size="13" font-weight="bold" lengthAdjust="spacing" textLength="137.3125" x="698.9766" y="1699.0044">G&#233;rer fournisseurs</text><g class="message" data-participant-1="Administrateur" data-participant-2="UI_Admin"><polygon fill="#181818" points="427.7485,1733.2031,437.7485,1737.2031,427.7485,1741.2031,431.7485,1737.2031" style="stroke:#181818;stroke-width:1;"/><line style="stroke:#181818;stroke-width:1;" x1="148.3115" x2="433.7485" y1="1737.2031" y2="1737.2031"/><text fill="#000000" font-family="sans-serif" font-size="13" lengthAdjust="spacing" textLength="144.9932" x="155.3115" y="1732.1372">Cliquer "Fournisseurs"</text></g><g class="message" data-participant-1="UI_Admin" data-participant-2="Server"><polygon fill="#181818" points="708.0859,1762.3359,718.0859,1766.3359,708.0859,1770.3359,712.0859,1766.3359" style="stroke:#181818;stroke-width:1;"/><line style="stroke:#181818;stroke-width:1;" x1="439.7485" x2="714.0859" y1="1766.3359" y2="1766.3359"/><text fill="#000000" font-family="sans-serif" font-size="13" lengthAdjust="spacing" textLength="159.7197" x="446.7485" y="1761.27">GET /admin/fournisseurs</text></g><g class="message" data-participant-1="Server" data-participant-2="DB"><polygon fill="#181818" points="1457.6865,1791.4688,1467.6865,1795.4688,1457.6865,1799.4688,1461.6865,1795.4688" style="stroke:#181818;stroke-width:1;"/><line style="stroke:#181818;stroke-width:1;" x1="720.0859" x2="1463.6865" y1="1795.4688" y2="1795.4688"/><text fill="#000000" font-family="sans-serif" font-size="13" lengthAdjust="spacing" textLength="185.6626" x="727.0859" y="1790.4028">SELECT * FROM fournisseurs</text></g><g class="message" data-participant-1="DB" data-participant-2="Server"><polygon fill="#181818" points="731.0859,1820.6016,721.0859,1824.6016,731.0859,1828.6016,727.0859,1824.6016" style="stroke:#181818;stroke-width:1;"/><line style="stroke:#181818;stroke-width:1;stroke-dasharray:2.0,2.0;" x1="725.0859" x2="1468.6865" y1="1824.6016" y2="1824.6016"/><text fill="#000000" font-family="sans-serif" font-size="13" lengthAdjust="spacing" textLength="114.7212" x="737.0859" y="1819.5356">Liste fournisseurs</text></g><g class="message" data-participant-1="UI_Admin" data-participant-2="Server"><polygon fill="#181818" points="708.0859,1849.7344,718.0859,1853.7344,708.0859,1857.7344,712.0859,1853.7344" style="stroke:#181818;stroke-width:1;"/><line style="stroke:#181818;stroke-width:1;" x1="439.7485" x2="714.0859" y1="1853.7344" y2="1853.7344"/><text fill="#000000" font-family="sans-serif" font-size="13" lengthAdjust="spacing" textLength="256.3374" x="446.7485" y="1848.6685">POST /admin/fournisseurs (ajout/modif)</text></g><g class="message" data-participant-1="Server" data-participant-2="DB"><polygon fill="#181818" points="1457.6865,1878.8672,1467.6865,1882.8672,1457.6865,1886.8672,1461.6865,1882.8672" style="stroke:#181818;stroke-width:1;"/><line style="stroke:#181818;stroke-width:1;" x1="720.0859" x2="1463.6865" y1="1882.8672" y2="1882.8672"/><text fill="#000000" font-family="sans-serif" font-size="13" lengthAdjust="spacing" textLength="187.7891" x="727.0859" y="1877.8013">INSERT/UPDATE fournisseurs</text></g><g class="message" data-participant-1="DB" data-participant-2="Server"><polygon fill="#181818" points="731.0859,1908,721.0859,1912,731.0859,1916,727.0859,1912" style="stroke:#181818;stroke-width:1;"/><line style="stroke:#181818;stroke-width:1;stroke-dasharray:2.0,2.0;" x1="725.0859" x2="1468.6865" y1="1912" y2="1912"/><text fill="#000000" font-family="sans-serif" font-size="13" lengthAdjust="spacing" textLength="18.7573" x="737.0859" y="1906.9341">OK</text></g><g class="message" data-participant-1="Server" data-participant-2="UI_Admin"><polygon fill="#181818" points="450.7485,1937.1328,440.7485,1941.1328,450.7485,1945.1328,446.7485,1941.1328" style="stroke:#181818;stroke-width:1;"/><line style="stroke:#181818;stroke-width:1;" x1="444.7485" x2="719.0859" y1="1941.1328" y2="1941.1328"/><text fill="#000000" font-family="sans-serif" font-size="13" lengthAdjust="spacing" textLength="84.335" x="456.7485" y="1936.0669">Confirmation</text></g><rect fill="#EEEEEE" height="3" style="stroke:#EEEEEE;stroke-width:1;" width="1541.7915" x="0" y="1969.6992"/><line style="stroke:#000000;stroke-width:1;" x1="0" x2="1541.7915" y1="1969.6992" y2="1969.6992"/><line style="stroke:#000000;stroke-width:1;" x1="0" x2="1541.7915" y1="1972.6992" y2="1972.6992"/><rect fill="#EEEEEE" height="23.1328" style="stroke:#000000;stroke-width:2;" width="183.9839" x="678.9038" y="1959.1328"/><text fill="#000000" font-family="sans-serif" font-size="13" font-weight="bold" lengthAdjust="spacing" textLength="165.458" x="684.9038" y="1975.1997">Statistiques g&#233;n&#233;rales</text><g class="message" data-participant-1="Administrateur" data-participant-2="UI_Admin"><polygon fill="#181818" points="427.7485,2009.3984,437.7485,2013.3984,427.7485,2017.3984,431.7485,2013.3984" style="stroke:#181818;stroke-width:1;"/><line style="stroke:#181818;stroke-width:1;" x1="148.3115" x2="433.7485" y1="2013.3984" y2="2013.3984"/><text fill="#000000" font-family="sans-serif" font-size="13" lengthAdjust="spacing" textLength="138.9946" x="155.3115" y="2008.3325">Cliquer "Statistiques"</text></g><g class="message" data-participant-1="UI_Admin" data-participant-2="Server"><polygon fill="#181818" points="708.0859,2038.5313,718.0859,2042.5313,708.0859,2046.5313,712.0859,2042.5313" style="stroke:#181818;stroke-width:1;"/><line style="stroke:#181818;stroke-width:1;" x1="439.7485" x2="714.0859" y1="2042.5313" y2="2042.5313"/><text fill="#000000" font-family="sans-serif" font-size="13" lengthAdjust="spacing" textLength="155.1431" x="446.7485" y="2037.4653">GET /admin/statistiques</text></g><g class="message" data-participant-1="Server" data-participant-2="DB"><polygon fill="#181818" points="1457.6865,2067.6641,1467.6865,2071.6641,1457.6865,2075.6641,1461.6865,2071.6641" style="stroke:#181818;stroke-width:1;"/><line style="stroke:#181818;stroke-width:1;" x1="720.0859" x2="1463.6865" y1="2071.6641" y2="2071.6641"/><text fill="#000000" font-family="sans-serif" font-size="13" lengthAdjust="spacing" textLength="725.6006" x="727.0859" y="2066.5981">- SELECT COUNT(*) FROM users - SELECT COUNT(*) FROM paiements - SELECT SUM(montant) FROM paiements</text></g><g class="message" data-participant-1="DB" data-participant-2="Server"><polygon fill="#181818" points="731.0859,2096.7969,721.0859,2100.7969,731.0859,2104.7969,727.0859,2100.7969" style="stroke:#181818;stroke-width:1;"/><line style="stroke:#181818;stroke-width:1;stroke-dasharray:2.0,2.0;" x1="725.0859" x2="1468.6865" y1="2100.7969" y2="2100.7969"/><text fill="#000000" font-family="sans-serif" font-size="13" lengthAdjust="spacing" textLength="60.5884" x="737.0859" y="2095.731">R&#233;sultats</text></g><g class="message" data-participant-1="Server" data-participant-2="UI_Admin"><polygon fill="#181818" points="450.7485,2125.9297,440.7485,2129.9297,450.7485,2133.9297,446.7485,2129.9297" style="stroke:#181818;stroke-width:1;"/><line style="stroke:#181818;stroke-width:1;" x1="444.7485" x2="719.0859" y1="2129.9297" y2="2129.9297"/><text fill="#000000" font-family="sans-serif" font-size="13" lengthAdjust="spacing" textLength="211.2183" x="456.7485" y="2124.8638">Affichage graphique/statistiques</text></g><!--SRC=[dLPTRzem57tdLrpn0br7UP_4gXJIbgq5H63hM-Kc1hmbSMOxrVflzZRnE_XZkt6-722XJAfKnpxt-fxZusk8gxY0fM8-aqJHMBI8dh6yW8LCAf5EHaGevhA8X0hQur1HiI8kDUFQG2GinyzBIMlXEcaEr1zLf4F5AwO2ArQRlZKRQwYUt4jvGoG53_zu6EwsL6hWwARL6WnWY7FqD-EXMHqC1Ytpi_SvhnK-WHqgWGCQ4ER39GHS9RaZ8YLjvIWCI0j1_6pgBA3lypNMdqtYykW6bnpxmHuku0FSpgUF46EaXE_tzjpEiW_WkeN0dfbkb960s3Y5Cc-1-xRR2hPYEAvKM29BHWl-auPzIQLCTBW4GJqcgAlmIsja_U2n0kRHK676H59dEh57TgDC3c6I2GZZ00lXMKI3G2uF8aLxkFZANBglr7ZYsFC5_bjC8KK-PqZeNbrTNHp8DFrwb2eUzug9W2JSW2IySXV8s5Vfj8VYeW5LB730WeYyQRsRo5gkkzjwEDpzWVQZ4Ty-olZEHi8vv3evzsVc3PwUclrHr9HQn3Z_D1gioGWaaeZLe1CYaRJope4s3tXJQP7kg4xMQiNS3LdJ6ZMqQZF2Q82c0AyJXqN2Hg66FliLuqZYGdj6tgXeDtWYoZVePhcHw4T0GwaDz-X5aqdoKBaFMiv6ri8kAJbu5hbeTOBLc6bETt_Zz6gbcsbLxb5TBXAQvj8P_YaJDBYdoFjk-vILrFYdljKS4xFEAoMssbwhJqIYnjvCcbDFbksZhikci4F7a6J-lvkjla62- -XXwEXKdNfHz7fLaBpuUTb0uJNP9wlB8tBpmedmj3Pts1Wnr3W7ULAM_Fwq3IkbJUPG4UsJT6DpZtVeKjCnQh8OvPLMy9C8JTE9ewHJ9rwfN8RtySnxp3j8rbxvkdlmPJgUP4RGmw8ZddiH3kahyk9J4fldlEAnGBxol7E-DQ9EIs3kSU8nCP4r3uG9ENddAlIw-cdj1znZgvestSyRSLCX-ustaCTunbEJ9M-tL8be4jQxBHwN83uzGsWpmscXfO7UvmUzNElXT3bPT3zSc2sdPh5qPG5mbe_TW8SAVt3jWmw4ck-swG-OayvS2n9jaheh7Fu1]--></g></svg>